<svg width="45" height="45" viewBox="0 0 45 45" fill="none" xmlns="http://www.w3.org/2000/svg">
<circle cx="22.5" cy="22.5" r="22.5" fill="#0B913B"/>
<path d="M21.2211 23.5272C22.2786 21.6183 24.3111 20.4922 25.4922 18.803C26.7419 17.0314 26.0415 13.7217 22.4983 13.7217C20.1774 13.7217 19.0376 15.4795 18.5569 16.9353L15 15.4384C15.9751 12.5132 18.6256 10 22.4846 10C25.7119 10 27.9229 11.4695 29.0491 13.3097C30.0104 14.889 30.5735 17.8417 29.0903 20.039C27.4423 22.4698 25.863 23.2113 25.0115 24.7769C24.6682 25.4087 24.5308 25.8207 24.5308 27.8532H20.5619C20.5482 26.782 20.3834 25.0379 21.2211 23.5272ZM25.245 33.3465C25.245 34.8571 24.009 36.0931 22.4983 36.0931C20.9877 36.0931 19.7517 34.8571 19.7517 33.3465C19.7517 31.8358 20.9877 30.5998 22.4983 30.5998C24.009 30.5998 25.245 31.8358 25.245 33.3465Z" fill="#F8F8F9"/>
</svg>
