<svg width="23" height="24" viewBox="0 0 23 24" fill="none" xmlns="http://www.w3.org/2000/svg">
<path d="M22.491 15.5319C22.491 19.8774 17.4464 23.4123 11.2455 23.4123C5.0446 23.4123 0 19.8774 0 15.5319C0 14.4662 0.303362 13.4479 0.853809 12.5203C1.39458 13.2167 2.07605 13.8612 2.88853 14.4372C5.08505 15.9944 7.98853 16.864 11.0793 16.8939H11.0811C11.1356 16.8948 11.191 16.8957 11.2464 16.8957C11.3018 16.8957 11.3572 16.8957 11.4117 16.8939H11.4134C13.1211 16.8649 14.7267 16.3866 15.9612 15.538C15.9876 15.5205 16.0131 15.502 16.0395 15.4835C17.3567 14.5497 18.0821 13.2976 18.0821 11.9575C18.0821 10.6174 17.3567 9.3653 16.0395 8.43147C16.0131 8.41301 15.9876 8.39542 15.9612 8.37695C18.2492 9.12085 20.123 10.3879 21.2679 11.9566C21.4015 12.1404 21.5255 12.3277 21.638 12.5185C22.1885 13.4462 22.4919 14.4644 22.4919 15.5301L22.491 15.5319Z" fill="#073519"/>
<path d="M22.491 7.88037C22.491 8.94609 22.1876 9.96433 21.6372 10.892C21.0964 10.1956 20.4149 9.55106 19.6024 8.97511C17.3655 7.38972 14.3978 6.51656 11.2446 6.51656C11.1883 6.51656 11.1329 6.51744 11.0775 6.51832C9.36992 6.54734 7.7643 7.02568 6.52975 7.87422C6.50337 7.8918 6.47787 7.91027 6.45149 7.92873C5.13429 8.86256 4.40886 10.1147 4.40886 11.4548C4.40886 12.7948 5.13429 14.047 6.45149 14.9808C6.47787 14.9993 6.50337 15.0168 6.52975 15.0353C4.24179 14.2914 2.36798 13.0243 1.22312 11.4556C1.08946 11.2719 0.965482 11.0846 0.85293 10.8938C0.303362 9.96433 0 8.94697 0 7.88037C0 3.53482 5.0446 0 11.2455 0C17.4464 0 22.491 3.53482 22.491 7.88037Z" fill="#073519"/>
</svg>
